#!OML:ASF F:\VICON\USERDATA\INSTALL\rory3\rory3.ASF
:FULLY-SPECIFIED
:DEGREES
32
root -10.7822 17.1067 -25.6034 4.38594 -8.64769 -5.39229
lowerback 5.63797 2.3589 4.02252
upperback 0.0953009 3.49442 3.03064
thorax -3.0122 1.69869 0.591717
lowerneck -15.017 -2.92524 -10.5434
upperneck 19.7737 -2.59021 5.0706
head 8.88312 -1.47679 3.16795
rclavicle -5.71506e-015 3.18055e-015
rhumerus -27.6967 -3.13481 -80.8954
rradius 40.57
rwrist 0.292958
rhand -15.3332 11.3288
rfingers 7.12502
rthumb 10.8434 -18.3712
lclavicle -5.71506e-015 3.18055e-015
lhumerus -41.788 17.3514 78.9413
lradius 26.1129
lwrist -10.8346
lhand -16.1462 23.5566
lfingers 7.12502
lthumb 10.0591 53.2962
rfemur 9.38818 7.56018 31.2434
rtibia 18.3126
rfoot -16.9044 -6.27936
rtoes -7.23109
lfemur -35.3072 -9.18538 -8.11607
ltibia 17.6053
lfoot -8.9018 17.127
ltoes -6.65764
33
root -10.7769 17.0894 -25.3406 4.46654 -8.82637 -5.38903
lowerback 5.44707 2.40384 4.01309
upperback 0.045725 3.54322 2.99829
thorax -2.95402 1.72363 0.567475
lowerneck -14.9684 -2.95201 -10.6545
upperneck 19.7477 -2.62046 5.13904
head 8.87063 -1.49233 3.20614
rclavicle -8.29926e-015 -1.70955e-014
rhumerus -27.5054 -3.42898 -80.8095
rradius 41.1541
rwrist -0.202143
rhand -15.559 11.776
rfingers 7.12502
rthumb 10.6256 -17.9353
lclavicle -8.29926e-015 -1.70955e-014
lhumerus -42.2288 18.23 78.2487
lradius 25.1198
lwrist -11.829
lhand -16.8013 22.5448
lfingers 7.12502
lthumb 9.4271 52.3139
rfemur 10.3909 7.53333 31.0524
rtibia 18.0601
rfoot -16.5345 -5.74496
rtoes -9.49358
lfemur -35.116 -8.083 -8.69744
ltibia 16.4925
lfoot -10.4759 15.7403
ltoes -8.22575
34
root -10.7713 17.0746 -25.0763 4.46175 -8.88816 -5.02883
lowerback 5.39967 2.39514 3.69221
upperback -0.152342 3.51403 2.82881
thorax -3.14098 1.70895 0.570343
lowerneck -14.5534 -2.91618 -10.509
upperneck 19.7325 -2.62754 5.02035
head 8.78645 -1.50192 3.14148
rclavicle 8.44835e-015 0
rhumerus -27.7545 -3.82281 -80.738
rradius 41.8246
rwrist -0.492679
rhand -16.2907 12.1078
rfingers 7.12502
rthumb 9.91967 -17.6385
lclavicle 8.44835e-015 0
lhumerus -42.9324 18.7611 77.5211
lradius 24.3086
lwrist -12.2223
lhand -17.862 21.4803
lfingers 7.12502
lthumb 8.40353 51.2931
rfemur 11.3679 7.52292 30.5141
rtibia 17.9621
rfoot -16.1682 -5.23301
rtoes -10.9105
lfemur -34.993 -7.20426 -9.78623
ltibia 15.9571
lfoot -11.226 14.569
ltoes -10.9159
35
root -10.7621 17.0558 -24.81 4.28674 -8.81216 -5.0892
lowerback 5.38145 2.33725 3.89802
upperback -0.107295 3.44379 2.75199
thorax -3.06837 1.67145 0.384412
lowerneck -14.3705 -2.87353 -10.3314
upperneck 19.6907 -2.6192 4.96689
head 8.73408 -1.49168 3.09485
rclavicle 2.36554e-014 -1.15295e-014
rhumerus -27.6005 -4.33123 -80.6975
rradius 42.2563
rwrist -0.808723
rhand -16.6428 12.3275
rfingers 7.12502
rthumb 9.57998 -17.4347
lclavicle 2.36554e-014 -1.15295e-014
lhumerus -43.3461 19.6401 76.6517
lradius 23.4261
lwrist -12.8453
lhand -18.5652 20.7137
lfingers 7.12502
lthumb 7.72487 50.5526
rfemur 12.3881 7.43443 30.4646
rtibia 18.1366
rfoot -15.6361 -4.7608
rtoes -11.6966
lfemur -34.7448 -6.44136 -10.5333
ltibia 15.8632
lfoot -10.7992 13.2485
ltoes -12.3864
36
root -10.7597 17.0334 -24.5484 4.08111 -8.57132 -5.2414
lowerback 5.5238 2.30296 4.11617
upperback 0.0359497 3.41139 2.69502
thorax -2.98457 1.65385 0.20435
lowerneck -14.7901 -2.89535 -10.1812
upperneck 19.8606 -2.67189 5.09837
head 8.87129 -1.48948 3.10979
rclavicle 3.23522e-014 4.25399e-014
rhumerus -27.0966 -5.28029 -80.6241
rradius 42.5004
rwrist -1.26317
rhand -16.736 12.6092
rfingers 7.12502
rthumb 9.49011 -17.1571
lclavicle 3.23522e-014 4.25399e-014
lhumerus -43.4329 20.4285 75.9189
lradius 22.6065
lwrist -13.2755
lhand -19.0381 19.7372
lfingers 7.12502
lthumb 7.26842 49.5924
rfemur 13.2555 7.2808 30.5585
rtibia 18.557
rfoot -15.034 -4.16583
rtoes -12.0215
lfemur -34.5443 -3.83568 -12.146
ltibia 16.2917
lfoot -9.5253 9.41616
ltoes -10.2276
37
root -10.755 17.0185 -24.2877 3.94558 -8.17966 -5.06097
lowerback 5.64714 2.20897 3.88289
upperback 4.976e-005 3.28035 2.67259
thorax -3.10566 1.58991 0.314381
lowerneck -14.929 -2.89636 -10.1223
upperneck 19.9515 -2.66003 5.03498
head 8.9253 -1.486 3.08023
rclavicle -2.28602e-015 2.54444e-014
rhumerus -27.7605 -5.4553 -80.4527
rradius 44.1517
rwrist -2.14319
rhand -16.9742 12.1256
rfingers 7.12502
rthumb 9.26025 -17.651
lclavicle -2.28602e-015 2.54444e-014
lhumerus -43.8809 21.1174 75.3329
lradius 22.0204
lwrist -13.541
lhand -19.8057 19.3152
lfingers 7.12502
lthumb 6.52735 49.1946
rfemur 13.8812 7.09803 30.3042
rtibia 19.1178
rfoot -14.1569 -3.61629
rtoes -13.2517
lfemur -34.6768 -2.32926 -13.6891
ltibia 17.3433
lfoot -8.37334 6.69566
ltoes -8.22733
38
root -10.7478 17.0051 -24.0144 3.78417 -7.86077 -4.95323
lowerback 5.45577 2.12029 3.74529
upperback 0.00772371 3.14365 2.72313
thorax -3.00326 1.52638 0.461531
lowerneck -14.843 -2.95961 -10.2533
upperneck 20.0443 -2.71106 4.96494
head 8.94799 -1.52999 3.0729
rclavicle -6.83819e-014 -4.09496e-014
rhumerus -28.1351 -5.89601 -80.1771
rradius 45.1501
rwrist -2.67081
rhand -16.9729 11.9703
rfingers 7.12502
rthumb 9.26153 -17.8063
lclavicle -6.83819e-014 -4.09496e-014
lhumerus -44.5803 21.7759 74.7573
lradius 21.7391
lwrist -13.3466
lhand -20.1624 19.5239
lfingers 7.12502
lthumb 6.18307 49.4136
rfemur 14.3613 6.93876 30.0711
rtibia 20.0371
rfoot -13.0551 -3.01451
rtoes -15.6646
lfemur -34.7043 -1.4517 -14.8574
ltibia 18.7062
lfoot -7.8624 4.6418
ltoes -8.46575
